<?xml version="1.0" encoding="UTF-8" standalone="no"?>
<!DOCTYPE svg PUBLIC "-//W3C//DTD SVG 1.1//EN"
 "http://www.w3.org/Graphics/SVG/1.1/DTD/svg11.dtd">
<!-- Generated by graphviz version 2.43.0 (0)
 -->
<!-- Title: %3 Pages: 1 -->
<svg width="2697pt" height="1500pt"
 viewBox="0.00 0.00 2696.57 1500.45" xmlns="http://www.w3.org/2000/svg" xmlns:xlink="http://www.w3.org/1999/xlink">
<g id="graph0" class="graph" transform="scale(1 1) rotate(0) translate(4 1496.45)">
<title>%3</title>
<polygon fill="white" stroke="transparent" points="-4,4 -4,-1496.45 2692.57,-1496.45 2692.57,4 -4,4"/>
<text text-anchor="middle" x="1344.28" y="-22.8" font-family="Times,serif" font-size="14.00">Namespaces:</text>
<text text-anchor="middle" x="1344.28" y="-7.8" font-family="Times,serif" font-size="14.00">https://id.kb.se/vocab/</text>
<!-- B_:genid1 -->
<g id="node1" class="node">
<title>B_:genid1</title>
<ellipse fill="none" stroke="green" cx="1064.74" cy="-1392.45" rx="18" ry="18"/>
</g>
<!-- RTitle -->
<g id="node2" class="node">
<title>RTitle</title>
<ellipse fill="none" stroke="blue" cx="1929.3" cy="-1474.45" rx="31.7" ry="18"/>
<text text-anchor="middle" x="1929.3" y="-1470.75" font-family="Times,serif" font-size="14.00">Title</text>
</g>
<!-- B_:genid1&#45;&gt;RTitle -->
<g id="edge1" class="edge">
<title>B_:genid1&#45;&gt;RTitle</title>
<path fill="none" stroke="black" d="M1082.85,-1395.08C1127.85,-1401.92 1253.32,-1420.5 1358.32,-1431.45 1556,-1452.06 1793.24,-1466.74 1887.14,-1472.15"/>
<polygon fill="black" stroke="black" points="1887.17,-1475.66 1897.35,-1472.74 1887.57,-1468.67 1887.17,-1475.66"/>
<text text-anchor="middle" x="1537.32" y="-1464.25" font-family="Times,serif" font-size="14.00">http://www.w3.org/1999/02/22&#45;rdf&#45;syntax&#45;ns#type</text>
</g>
<!-- Rhttps://libris.kb.se/2ldf674d2c92k4z#it -->
<g id="node3" class="node">
<title>Rhttps://libris.kb.se/2ldf674d2c92k4z#it</title>
<ellipse fill="none" stroke="blue" cx="1929.3" cy="-1420.45" rx="192.27" ry="18"/>
<text text-anchor="middle" x="1929.3" y="-1416.75" font-family="Times,serif" font-size="14.00">https://libris.kb.se/2ldf674d2c92k4z#it</text>
</g>
<!-- B_:genid1&#45;&gt;Rhttps://libris.kb.se/2ldf674d2c92k4z#it -->
<g id="edge2" class="edge">
<title>B_:genid1&#45;&gt;Rhttps://libris.kb.se/2ldf674d2c92k4z#it</title>
<path fill="none" stroke="black" d="M1082.97,-1393.01C1164.11,-1395.64 1513.55,-1406.99 1736.97,-1414.24"/>
<polygon fill="black" stroke="black" points="1737.07,-1417.74 1747.18,-1414.57 1737.3,-1410.75 1737.07,-1417.74"/>
<text text-anchor="middle" x="1537.32" y="-1416.25" font-family="Times,serif" font-size="14.00">source</text>
</g>
<!-- LMän som hatar kvinnor -->
<g id="node4" class="node">
<title>LMän som hatar kvinnor</title>
<polygon fill="none" stroke="black" points="1837.8,-1347.45 1837.8,-1383.45 2020.8,-1383.45 2020.8,-1347.45 1837.8,-1347.45"/>
<text text-anchor="middle" x="1929.3" y="-1361.75" font-family="Times,serif" font-size="14.00">Män som hatar kvinnor</text>
</g>
<!-- B_:genid1&#45;&gt;LMän som hatar kvinnor -->
<g id="edge3" class="edge">
<title>B_:genid1&#45;&gt;LMän som hatar kvinnor</title>
<path fill="none" stroke="black" d="M1082.97,-1391.91C1176.25,-1388.99 1624.09,-1374.97 1827.45,-1368.61"/>
<polygon fill="black" stroke="black" points="1827.65,-1372.1 1837.54,-1368.29 1827.43,-1365.11 1827.65,-1372.1"/>
<text text-anchor="middle" x="1537.32" y="-1386.25" font-family="Times,serif" font-size="14.00">mainTitle</text>
</g>
<!-- B_:genid2 -->
<g id="node5" class="node">
<title>B_:genid2</title>
<ellipse fill="none" stroke="green" cx="1064.74" cy="-1229.45" rx="18" ry="18"/>
</g>
<!-- Rhttps://id.kb.se/relator/author -->
<g id="node6" class="node">
<title>Rhttps://id.kb.se/relator/author</title>
<ellipse fill="none" stroke="blue" cx="1929.3" cy="-1310.45" rx="148.37" ry="18"/>
<text text-anchor="middle" x="1929.3" y="-1306.75" font-family="Times,serif" font-size="14.00">https://id.kb.se/relator/author</text>
</g>
<!-- B_:genid2&#45;&gt;Rhttps://id.kb.se/relator/author -->
<g id="edge4" class="edge">
<title>B_:genid2&#45;&gt;Rhttps://id.kb.se/relator/author</title>
<path fill="none" stroke="black" d="M1082.85,-1232C1127.87,-1238.64 1253.35,-1256.68 1358.32,-1267.45 1503.73,-1282.37 1670.52,-1294.35 1785.94,-1301.84"/>
<polygon fill="black" stroke="black" points="1786.04,-1305.36 1796.24,-1302.51 1786.49,-1298.37 1786.04,-1305.36"/>
<text text-anchor="middle" x="1537.32" y="-1300.25" font-family="Times,serif" font-size="14.00">role</text>
</g>
<!-- RPrimaryContribution -->
<g id="node7" class="node">
<title>RPrimaryContribution</title>
<ellipse fill="none" stroke="blue" cx="1929.3" cy="-1256.45" rx="107.48" ry="18"/>
<text text-anchor="middle" x="1929.3" y="-1252.75" font-family="Times,serif" font-size="14.00">PrimaryContribution</text>
</g>
<!-- B_:genid2&#45;&gt;RPrimaryContribution -->
<g id="edge5" class="edge">
<title>B_:genid2&#45;&gt;RPrimaryContribution</title>
<path fill="none" stroke="black" d="M1082.97,-1229.99C1174.2,-1232.84 1604.52,-1246.31 1813.65,-1252.86"/>
<polygon fill="black" stroke="black" points="1813.64,-1256.36 1823.75,-1253.18 1813.86,-1249.37 1813.64,-1256.36"/>
<text text-anchor="middle" x="1537.32" y="-1252.25" font-family="Times,serif" font-size="14.00">http://www.w3.org/1999/02/22&#45;rdf&#45;syntax&#45;ns#type</text>
</g>
<!-- Rhttps://libris.kb.se/vs689k5d108n3lx#it -->
<g id="node8" class="node">
<title>Rhttps://libris.kb.se/vs689k5d108n3lx#it</title>
<ellipse fill="none" stroke="blue" cx="1929.3" cy="-1202.45" rx="194.97" ry="18"/>
<text text-anchor="middle" x="1929.3" y="-1198.75" font-family="Times,serif" font-size="14.00">https://libris.kb.se/vs689k5d108n3lx#it</text>
</g>
<!-- B_:genid2&#45;&gt;Rhttps://libris.kb.se/vs689k5d108n3lx#it -->
<g id="edge6" class="edge">
<title>B_:genid2&#45;&gt;Rhttps://libris.kb.se/vs689k5d108n3lx#it</title>
<path fill="none" stroke="black" d="M1082.89,-1228.84C1127.99,-1227.23 1253.67,-1222.8 1358.32,-1219.45 1482.82,-1215.47 1622.62,-1211.29 1732.61,-1208.08"/>
<polygon fill="black" stroke="black" points="1732.93,-1211.57 1742.83,-1207.78 1732.73,-1204.57 1732.93,-1211.57"/>
<text text-anchor="middle" x="1537.32" y="-1223.25" font-family="Times,serif" font-size="14.00">agent</text>
</g>
<!-- B_:genid3 -->
<g id="node9" class="node">
<title>B_:genid3</title>
<ellipse fill="none" stroke="green" cx="1929.3" cy="-1148.45" rx="18" ry="18"/>
</g>
<!-- Lkssb -->
<g id="node10" class="node">
<title>Lkssb</title>
<polygon fill="none" stroke="black" points="2576.42,-1185.45 2576.42,-1221.45 2630.42,-1221.45 2630.42,-1185.45 2576.42,-1185.45"/>
<text text-anchor="middle" x="2603.42" y="-1199.75" font-family="Times,serif" font-size="14.00">kssb</text>
</g>
<!-- B_:genid3&#45;&gt;Lkssb -->
<g id="edge7" class="edge">
<title>B_:genid3&#45;&gt;Lkssb</title>
<path fill="none" stroke="black" d="M1947.33,-1150.04C1983.32,-1153.39 2069.74,-1161.36 2142.28,-1167.45 2299.95,-1180.68 2488.16,-1194.92 2565.98,-1200.74"/>
<polygon fill="black" stroke="black" points="2565.98,-1204.25 2576.22,-1201.5 2566.5,-1197.27 2565.98,-1204.25"/>
<text text-anchor="middle" x="2321.28" y="-1199.25" font-family="Times,serif" font-size="14.00">code</text>
</g>
<!-- RConceptScheme -->
<g id="node11" class="node">
<title>RConceptScheme</title>
<ellipse fill="none" stroke="blue" cx="2603.42" cy="-1148.45" rx="85.29" ry="18"/>
<text text-anchor="middle" x="2603.42" y="-1144.75" font-family="Times,serif" font-size="14.00">ConceptScheme</text>
</g>
<!-- B_:genid3&#45;&gt;RConceptScheme -->
<g id="edge8" class="edge">
<title>B_:genid3&#45;&gt;RConceptScheme</title>
<path fill="none" stroke="black" d="M1947.59,-1148.45C2025.3,-1148.45 2345.5,-1148.45 2507.55,-1148.45"/>
<polygon fill="black" stroke="black" points="2507.99,-1151.95 2517.99,-1148.45 2507.99,-1144.95 2507.99,-1151.95"/>
<text text-anchor="middle" x="2321.28" y="-1152.25" font-family="Times,serif" font-size="14.00">http://www.w3.org/1999/02/22&#45;rdf&#45;syntax&#45;ns#type</text>
</g>
<!-- L8 -->
<g id="node12" class="node">
<title>L8</title>
<polygon fill="none" stroke="black" points="2576.42,-1075.45 2576.42,-1111.45 2630.42,-1111.45 2630.42,-1075.45 2576.42,-1075.45"/>
<text text-anchor="middle" x="2603.42" y="-1089.75" font-family="Times,serif" font-size="14.00">8</text>
</g>
<!-- B_:genid3&#45;&gt;L8 -->
<g id="edge9" class="edge">
<title>B_:genid3&#45;&gt;L8</title>
<path fill="none" stroke="black" d="M1947.33,-1146.86C1983.32,-1143.51 2069.74,-1135.54 2142.28,-1129.45 2299.95,-1116.22 2488.16,-1101.98 2565.98,-1096.16"/>
<polygon fill="black" stroke="black" points="2566.5,-1099.63 2576.22,-1095.4 2565.98,-1092.65 2566.5,-1099.63"/>
<text text-anchor="middle" x="2321.28" y="-1133.25" font-family="Times,serif" font-size="14.00">version</text>
</g>
<!-- B_:genid4 -->
<g id="node13" class="node">
<title>B_:genid4</title>
<ellipse fill="none" stroke="green" cx="1064.74" cy="-1065.45" rx="18" ry="18"/>
</g>
<!-- B_:genid4&#45;&gt;B_:genid3 -->
<g id="edge12" class="edge">
<title>B_:genid4&#45;&gt;B_:genid3</title>
<path fill="none" stroke="black" d="M1082.85,-1068.07C1127.86,-1074.88 1253.33,-1093.41 1358.32,-1104.45 1566.61,-1126.35 1818.81,-1142.04 1900.99,-1146.88"/>
<polygon fill="black" stroke="black" points="1900.83,-1150.38 1911.01,-1147.47 1901.23,-1143.39 1900.83,-1150.38"/>
<text text-anchor="middle" x="1537.32" y="-1138.25" font-family="Times,serif" font-size="14.00">inScheme</text>
</g>
<!-- LHc.01 -->
<g id="node14" class="node">
<title>LHc.01</title>
<polygon fill="none" stroke="black" points="1899.8,-1075.45 1899.8,-1111.45 1958.8,-1111.45 1958.8,-1075.45 1899.8,-1075.45"/>
<text text-anchor="middle" x="1929.3" y="-1089.75" font-family="Times,serif" font-size="14.00">Hc.01</text>
</g>
<!-- B_:genid4&#45;&gt;LHc.01 -->
<g id="edge10" class="edge">
<title>B_:genid4&#45;&gt;LHc.01</title>
<path fill="none" stroke="black" d="M1082.97,-1066.01C1187.55,-1069.4 1737.72,-1087.26 1889.49,-1092.19"/>
<polygon fill="black" stroke="black" points="1889.61,-1095.7 1899.72,-1092.52 1889.84,-1088.7 1889.61,-1095.7"/>
<text text-anchor="middle" x="1537.32" y="-1089.25" font-family="Times,serif" font-size="14.00">code</text>
</g>
<!-- RClassification -->
<g id="node15" class="node">
<title>RClassification</title>
<ellipse fill="none" stroke="blue" cx="1929.3" cy="-1038.45" rx="72.59" ry="18"/>
<text text-anchor="middle" x="1929.3" y="-1034.75" font-family="Times,serif" font-size="14.00">Classification</text>
</g>
<!-- B_:genid4&#45;&gt;RClassification -->
<g id="edge11" class="edge">
<title>B_:genid4&#45;&gt;RClassification</title>
<path fill="none" stroke="black" d="M1082.97,-1064.91C1179.37,-1061.89 1654.4,-1047.02 1846.98,-1040.99"/>
<polygon fill="black" stroke="black" points="1847.16,-1044.49 1857.04,-1040.68 1846.94,-1037.49 1847.16,-1044.49"/>
<text text-anchor="middle" x="1537.32" y="-1059.25" font-family="Times,serif" font-size="14.00">http://www.w3.org/1999/02/22&#45;rdf&#45;syntax&#45;ns#type</text>
</g>
<!-- B_:genid5 -->
<g id="node16" class="node">
<title>B_:genid5</title>
<ellipse fill="none" stroke="green" cx="1064.74" cy="-983.45" rx="18" ry="18"/>
</g>
<!-- L839.738 -->
<g id="node17" class="node">
<title>L839.738</title>
<polygon fill="none" stroke="black" points="1891.8,-965.45 1891.8,-1001.45 1966.8,-1001.45 1966.8,-965.45 1891.8,-965.45"/>
<text text-anchor="middle" x="1929.3" y="-979.75" font-family="Times,serif" font-size="14.00">839.738</text>
</g>
<!-- B_:genid5&#45;&gt;L839.738 -->
<g id="edge13" class="edge">
<title>B_:genid5&#45;&gt;L839.738</title>
<path fill="none" stroke="black" d="M1082.97,-983.45C1185.78,-983.45 1719.27,-983.45 1881.47,-983.45"/>
<polygon fill="black" stroke="black" points="1881.61,-986.95 1891.61,-983.45 1881.61,-979.95 1881.61,-986.95"/>
<text text-anchor="middle" x="1537.32" y="-987.25" font-family="Times,serif" font-size="14.00">code</text>
</g>
<!-- RClassificationDdc -->
<g id="node18" class="node">
<title>RClassificationDdc</title>
<ellipse fill="none" stroke="blue" cx="1929.3" cy="-928.45" rx="90.98" ry="18"/>
<text text-anchor="middle" x="1929.3" y="-924.75" font-family="Times,serif" font-size="14.00">ClassificationDdc</text>
</g>
<!-- B_:genid5&#45;&gt;RClassificationDdc -->
<g id="edge14" class="edge">
<title>B_:genid5&#45;&gt;RClassificationDdc</title>
<path fill="none" stroke="black" d="M1082.89,-982.33C1127.99,-979.37 1253.67,-971.15 1358.32,-964.45 1524.96,-953.78 1719.03,-941.56 1832.32,-934.46"/>
<polygon fill="black" stroke="black" points="1832.59,-937.95 1842.35,-933.83 1832.15,-930.96 1832.59,-937.95"/>
<text text-anchor="middle" x="1537.32" y="-968.25" font-family="Times,serif" font-size="14.00">http://www.w3.org/1999/02/22&#45;rdf&#45;syntax&#45;ns#type</text>
</g>
<!-- Lfull -->
<g id="node19" class="node">
<title>Lfull</title>
<polygon fill="none" stroke="black" points="1902.3,-855.45 1902.3,-891.45 1956.3,-891.45 1956.3,-855.45 1902.3,-855.45"/>
<text text-anchor="middle" x="1929.3" y="-869.75" font-family="Times,serif" font-size="14.00">full</text>
</g>
<!-- B_:genid5&#45;&gt;Lfull -->
<g id="edge15" class="edge">
<title>B_:genid5&#45;&gt;Lfull</title>
<path fill="none" stroke="black" d="M1082.68,-986.87C1128.65,-995.17 1257.78,-1011.83 1340.32,-956.45 1354.51,-946.92 1344.06,-931.89 1358.32,-922.45 1446.26,-864.22 1780.63,-868.88 1891.98,-872.16"/>
<polygon fill="black" stroke="black" points="1891.94,-875.66 1902.05,-872.47 1892.16,-868.67 1891.94,-875.66"/>
<text text-anchor="middle" x="1537.32" y="-926.25" font-family="Times,serif" font-size="14.00">edition</text>
</g>
<!-- L23/swe -->
<g id="node20" class="node">
<title>L23/swe</title>
<polygon fill="none" stroke="black" points="1895.8,-800.45 1895.8,-836.45 1962.8,-836.45 1962.8,-800.45 1895.8,-800.45"/>
<text text-anchor="middle" x="1929.3" y="-814.75" font-family="Times,serif" font-size="14.00">23/swe</text>
</g>
<!-- B_:genid5&#45;&gt;L23/swe -->
<g id="edge16" class="edge">
<title>B_:genid5&#45;&gt;L23/swe</title>
<path fill="none" stroke="black" d="M1082.36,-987.87C1129.74,-999.37 1266.86,-1024.82 1340.32,-956.45 1374.98,-924.19 1323.02,-883 1358.32,-851.45 1509.04,-716.72 1781.39,-775.72 1885.9,-805.28"/>
<polygon fill="black" stroke="black" points="1885.19,-808.72 1895.77,-808.13 1887.13,-802 1885.19,-808.72"/>
<text text-anchor="middle" x="1537.32" y="-855.25" font-family="Times,serif" font-size="14.00">editionEnumeration</text>
</g>
<!-- Rhttps://libris.kb.se/3lv80jw71tr31dz3#it -->
<g id="node21" class="node">
<title>Rhttps://libris.kb.se/3lv80jw71tr31dz3#it</title>
<ellipse fill="none" stroke="blue" cx="197.58" cy="-632.45" rx="197.66" ry="18"/>
<text text-anchor="middle" x="197.58" y="-628.75" font-family="Times,serif" font-size="14.00">https://libris.kb.se/3lv80jw71tr31dz3#it</text>
</g>
<!-- Rhttps://libris.kb.se/3lv80jw71tr31dz3#it&#45;&gt;B_:genid1 -->
<g id="edge28" class="edge">
<title>Rhttps://libris.kb.se/3lv80jw71tr31dz3#it&#45;&gt;B_:genid1</title>
<path fill="none" stroke="black" d="M199.42,-650.52C204.14,-730.51 234.1,-1055.91 413.16,-1219.45 600.54,-1390.58 938.08,-1395.87 1036.26,-1393.53"/>
<polygon fill="black" stroke="black" points="1036.63,-1397.02 1046.52,-1393.24 1036.43,-1390.03 1036.63,-1397.02"/>
<text text-anchor="middle" x="592.16" y="-1374.25" font-family="Times,serif" font-size="14.00">hasTitle</text>
</g>
<!-- Rhttps://libris.kb.se/3lv80jw71tr31dz3#it&#45;&gt;B_:genid2 -->
<g id="edge34" class="edge">
<title>Rhttps://libris.kb.se/3lv80jw71tr31dz3#it&#45;&gt;B_:genid2</title>
<path fill="none" stroke="black" d="M200.81,-650.74C210.57,-722.28 256.31,-985.3 413.16,-1108.45 513.09,-1186.9 925.89,-1220.11 1036.42,-1227.69"/>
<polygon fill="black" stroke="black" points="1036.5,-1231.21 1046.71,-1228.39 1036.97,-1224.22 1036.5,-1231.21"/>
<text text-anchor="middle" x="592.16" y="-1204.25" font-family="Times,serif" font-size="14.00">contribution</text>
</g>
<!-- Rhttps://libris.kb.se/3lv80jw71tr31dz3#it&#45;&gt;B_:genid4 -->
<g id="edge35" class="edge">
<title>Rhttps://libris.kb.se/3lv80jw71tr31dz3#it&#45;&gt;B_:genid4</title>
<path fill="none" stroke="black" d="M202.99,-650.53C218.96,-711.68 279.95,-911.74 413.16,-997.45 620.07,-1130.58 942.72,-1087.08 1037.02,-1070.56"/>
<polygon fill="black" stroke="black" points="1037.66,-1074 1046.88,-1068.78 1036.42,-1067.11 1037.66,-1074"/>
<text text-anchor="middle" x="592.16" y="-1093.25" font-family="Times,serif" font-size="14.00">classification</text>
</g>
<!-- Rhttps://libris.kb.se/3lv80jw71tr31dz3#it&#45;&gt;B_:genid5 -->
<g id="edge36" class="edge">
<title>Rhttps://libris.kb.se/3lv80jw71tr31dz3#it&#45;&gt;B_:genid5</title>
<path fill="none" stroke="black" d="M204.44,-650.72C223.61,-707.17 290.46,-879.16 413.16,-948.45 468.03,-979.43 920.22,-982.99 1036.54,-983.4"/>
<polygon fill="black" stroke="black" points="1036.71,-986.9 1046.72,-983.43 1036.73,-979.9 1036.71,-986.9"/>
<text text-anchor="middle" x="592.16" y="-982.25" font-family="Times,serif" font-size="14.00">classification</text>
</g>
<!-- RText -->
<g id="node22" class="node">
<title>RText</title>
<ellipse fill="none" stroke="blue" cx="1064.74" cy="-929.45" rx="30.59" ry="18"/>
<text text-anchor="middle" x="1064.74" y="-925.75" font-family="Times,serif" font-size="14.00">Text</text>
</g>
<!-- Rhttps://libris.kb.se/3lv80jw71tr31dz3#it&#45;&gt;RText -->
<g id="edge17" class="edge">
<title>Rhttps://libris.kb.se/3lv80jw71tr31dz3#it&#45;&gt;RText</title>
<path fill="none" stroke="black" d="M206.11,-650.53C228.57,-701.81 300.61,-848.17 413.16,-905.45 467.41,-933.06 891.02,-931.2 1023.96,-929.91"/>
<polygon fill="black" stroke="black" points="1024.15,-933.41 1034.11,-929.81 1024.08,-926.41 1024.15,-933.41"/>
<text text-anchor="middle" x="592.16" y="-933.25" font-family="Times,serif" font-size="14.00">http://www.w3.org/1999/02/22&#45;rdf&#45;syntax&#45;ns#type</text>
</g>
<!-- Rhttps://id.kb.se/term/sao/F%C3%B6rsvunna%20personer -->
<g id="node23" class="node">
<title>Rhttps://id.kb.se/term/sao/F%C3%B6rsvunna%20personer</title>
<ellipse fill="none" stroke="blue" cx="1064.74" cy="-875.45" rx="275.65" ry="18"/>
<text text-anchor="middle" x="1064.74" y="-871.75" font-family="Times,serif" font-size="14.00">https://id.kb.se/term/sao/F%C3%B6rsvunna%20personer</text>
</g>
<!-- Rhttps://libris.kb.se/3lv80jw71tr31dz3#it&#45;&gt;Rhttps://id.kb.se/term/sao/F%C3%B6rsvunna%20personer -->
<g id="edge18" class="edge">
<title>Rhttps://libris.kb.se/3lv80jw71tr31dz3#it&#45;&gt;Rhttps://id.kb.se/term/sao/F%C3%B6rsvunna%20personer</title>
<path fill="none" stroke="black" d="M209.2,-650.63C236.38,-695.16 313.42,-809.27 413.16,-853.45 485.14,-885.33 671.45,-889.03 826.34,-885.77"/>
<polygon fill="black" stroke="black" points="826.57,-889.27 836.49,-885.55 826.42,-882.27 826.57,-889.27"/>
<text text-anchor="middle" x="592.16" y="-890.25" font-family="Times,serif" font-size="14.00">subject</text>
</g>
<!-- Rhttps://id.kb.se/term/sao/Hackers -->
<g id="node24" class="node">
<title>Rhttps://id.kb.se/term/sao/Hackers</title>
<ellipse fill="none" stroke="blue" cx="1064.74" cy="-821.45" rx="165.17" ry="18"/>
<text text-anchor="middle" x="1064.74" y="-817.75" font-family="Times,serif" font-size="14.00">https://id.kb.se/term/sao/Hackers</text>
</g>
<!-- Rhttps://libris.kb.se/3lv80jw71tr31dz3#it&#45;&gt;Rhttps://id.kb.se/term/sao/Hackers -->
<g id="edge19" class="edge">
<title>Rhttps://libris.kb.se/3lv80jw71tr31dz3#it&#45;&gt;Rhttps://id.kb.se/term/sao/Hackers</title>
<path fill="none" stroke="black" d="M216.69,-650.38C251.33,-683.36 330.9,-752.89 413.16,-781.45 584.03,-840.77 795.14,-841.61 929.64,-833.87"/>
<polygon fill="black" stroke="black" points="930.22,-837.34 939.99,-833.25 929.8,-830.35 930.22,-837.34"/>
<text text-anchor="middle" x="592.16" y="-840.25" font-family="Times,serif" font-size="14.00">subject</text>
</g>
<!-- Rhttps://libris.kb.se/20dhq6vl5v6b086#it -->
<g id="node25" class="node">
<title>Rhttps://libris.kb.se/20dhq6vl5v6b086#it</title>
<ellipse fill="none" stroke="blue" cx="1064.74" cy="-767.45" rx="196.07" ry="18"/>
<text text-anchor="middle" x="1064.74" y="-763.75" font-family="Times,serif" font-size="14.00">https://libris.kb.se/20dhq6vl5v6b086#it</text>
</g>
<!-- Rhttps://libris.kb.se/3lv80jw71tr31dz3#it&#45;&gt;Rhttps://libris.kb.se/20dhq6vl5v6b086#it -->
<g id="edge20" class="edge">
<title>Rhttps://libris.kb.se/3lv80jw71tr31dz3#it&#45;&gt;Rhttps://libris.kb.se/20dhq6vl5v6b086#it</title>
<path fill="none" stroke="black" d="M233.97,-650.31C275.66,-670.43 347.57,-702.3 413.16,-717.45 559.6,-751.26 728.98,-763.46 858.2,-767.36"/>
<polygon fill="black" stroke="black" points="858.12,-770.86 868.22,-767.65 858.32,-763.86 858.12,-770.86"/>
<text text-anchor="middle" x="592.16" y="-766.25" font-family="Times,serif" font-size="14.00">subject</text>
</g>
<!-- Rhttps://queerlit.dh.gu.se/qlit/v1/nj45ko84 -->
<g id="node26" class="node">
<title>Rhttps://queerlit.dh.gu.se/qlit/v1/nj45ko84</title>
<ellipse fill="none" stroke="blue" cx="1064.74" cy="-713.45" rx="201.46" ry="18"/>
<text text-anchor="middle" x="1064.74" y="-709.75" font-family="Times,serif" font-size="14.00">https://queerlit.dh.gu.se/qlit/v1/nj45ko84</text>
</g>
<!-- Rhttps://libris.kb.se/3lv80jw71tr31dz3#it&#45;&gt;Rhttps://queerlit.dh.gu.se/qlit/v1/nj45ko84 -->
<g id="edge21" class="edge">
<title>Rhttps://libris.kb.se/3lv80jw71tr31dz3#it&#45;&gt;Rhttps://queerlit.dh.gu.se/qlit/v1/nj45ko84</title>
<path fill="none" stroke="black" d="M283.67,-648.68C322.96,-655.67 370.31,-663.38 413.16,-668.45 567.26,-686.66 742.83,-698.27 872.71,-705.13"/>
<polygon fill="black" stroke="black" points="872.6,-708.63 882.77,-705.65 872.96,-701.64 872.6,-708.63"/>
<text text-anchor="middle" x="592.16" y="-702.25" font-family="Times,serif" font-size="14.00">subject</text>
</g>
<!-- Rhttps://id.kb.se/term/sao/Journalister -->
<g id="node27" class="node">
<title>Rhttps://id.kb.se/term/sao/Journalister</title>
<ellipse fill="none" stroke="blue" cx="1064.74" cy="-659.45" rx="181.17" ry="18"/>
<text text-anchor="middle" x="1064.74" y="-655.75" font-family="Times,serif" font-size="14.00">https://id.kb.se/term/sao/Journalister</text>
</g>
<!-- Rhttps://libris.kb.se/3lv80jw71tr31dz3#it&#45;&gt;Rhttps://id.kb.se/term/sao/Journalister -->
<g id="edge22" class="edge">
<title>Rhttps://libris.kb.se/3lv80jw71tr31dz3#it&#45;&gt;Rhttps://id.kb.se/term/sao/Journalister</title>
<path fill="none" stroke="black" d="M384.71,-638.26C531.54,-642.84 735.22,-649.2 881.13,-653.75"/>
<polygon fill="black" stroke="black" points="881.43,-657.26 891.53,-654.08 881.65,-650.26 881.43,-657.26"/>
<text text-anchor="middle" x="592.16" y="-653.25" font-family="Times,serif" font-size="14.00">subject</text>
</g>
<!-- Rhttps://libris.kb.se/0xbfn4sj0jwjrt7#it -->
<g id="node28" class="node">
<title>Rhttps://libris.kb.se/0xbfn4sj0jwjrt7#it</title>
<ellipse fill="none" stroke="blue" cx="1064.74" cy="-605.45" rx="186.57" ry="18"/>
<text text-anchor="middle" x="1064.74" y="-601.75" font-family="Times,serif" font-size="14.00">https://libris.kb.se/0xbfn4sj0jwjrt7#it</text>
</g>
<!-- Rhttps://libris.kb.se/3lv80jw71tr31dz3#it&#45;&gt;Rhttps://libris.kb.se/0xbfn4sj0jwjrt7#it -->
<g id="edge23" class="edge">
<title>Rhttps://libris.kb.se/3lv80jw71tr31dz3#it&#45;&gt;Rhttps://libris.kb.se/0xbfn4sj0jwjrt7#it</title>
<path fill="none" stroke="black" d="M363.74,-622.67C380.43,-621.84 397.13,-621.08 413.16,-620.45 566.65,-614.39 740.6,-610.54 869.99,-608.25"/>
<polygon fill="black" stroke="black" points="870.08,-611.75 880.01,-608.08 869.95,-604.75 870.08,-611.75"/>
<text text-anchor="middle" x="592.16" y="-624.25" font-family="Times,serif" font-size="14.00">subject</text>
</g>
<!-- Rhttps://id.kb.se/term/sao/Organiserad%20brottslighet -->
<g id="node29" class="node">
<title>Rhttps://id.kb.se/term/sao/Organiserad%20brottslighet</title>
<ellipse fill="none" stroke="blue" cx="1064.74" cy="-551.45" rx="259.95" ry="18"/>
<text text-anchor="middle" x="1064.74" y="-547.75" font-family="Times,serif" font-size="14.00">https://id.kb.se/term/sao/Organiserad%20brottslighet</text>
</g>
<!-- Rhttps://libris.kb.se/3lv80jw71tr31dz3#it&#45;&gt;Rhttps://id.kb.se/term/sao/Organiserad%20brottslighet -->
<g id="edge24" class="edge">
<title>Rhttps://libris.kb.se/3lv80jw71tr31dz3#it&#45;&gt;Rhttps://id.kb.se/term/sao/Organiserad%20brottslighet</title>
<path fill="none" stroke="black" d="M271.19,-615.73C312.57,-606.84 365.53,-596.51 413.16,-590.45 544.72,-573.71 692.18,-564.12 813.41,-558.65"/>
<polygon fill="black" stroke="black" points="813.74,-562.14 823.57,-558.19 813.43,-555.14 813.74,-562.14"/>
<text text-anchor="middle" x="592.16" y="-594.25" font-family="Times,serif" font-size="14.00">subject</text>
</g>
<!-- Rhttps://id.kb.se/term/sao/Sverige&#45;&#45;Stockholm -->
<g id="node30" class="node">
<title>Rhttps://id.kb.se/term/sao/Sverige&#45;&#45;Stockholm</title>
<ellipse fill="none" stroke="blue" cx="1064.74" cy="-497.45" rx="217.16" ry="18"/>
<text text-anchor="middle" x="1064.74" y="-493.75" font-family="Times,serif" font-size="14.00">https://id.kb.se/term/sao/Sverige&#45;&#45;Stockholm</text>
</g>
<!-- Rhttps://libris.kb.se/3lv80jw71tr31dz3#it&#45;&gt;Rhttps://id.kb.se/term/sao/Sverige&#45;&#45;Stockholm -->
<g id="edge25" class="edge">
<title>Rhttps://libris.kb.se/3lv80jw71tr31dz3#it&#45;&gt;Rhttps://id.kb.se/term/sao/Sverige&#45;&#45;Stockholm</title>
<path fill="none" stroke="black" d="M230.86,-614.71C271.87,-593.13 345.47,-557.61 413.16,-541.45 552.94,-508.09 714.05,-496.99 840.98,-494.28"/>
<polygon fill="black" stroke="black" points="841.29,-497.78 851.22,-494.08 841.15,-490.78 841.29,-497.78"/>
<text text-anchor="middle" x="592.16" y="-545.25" font-family="Times,serif" font-size="14.00">subject</text>
</g>
<!-- Rhttps://id.kb.se/term/sao/Sekelskiftet%202000 -->
<g id="node31" class="node">
<title>Rhttps://id.kb.se/term/sao/Sekelskiftet%202000</title>
<ellipse fill="none" stroke="blue" cx="1064.74" cy="-443.45" rx="225.56" ry="18"/>
<text text-anchor="middle" x="1064.74" y="-439.75" font-family="Times,serif" font-size="14.00">https://id.kb.se/term/sao/Sekelskiftet%202000</text>
</g>
<!-- Rhttps://libris.kb.se/3lv80jw71tr31dz3#it&#45;&gt;Rhttps://id.kb.se/term/sao/Sekelskiftet%202000 -->
<g id="edge26" class="edge">
<title>Rhttps://libris.kb.se/3lv80jw71tr31dz3#it&#45;&gt;Rhttps://id.kb.se/term/sao/Sekelskiftet%202000</title>
<path fill="none" stroke="black" d="M215.97,-614.27C250.03,-580.06 329.51,-506.94 413.16,-477.45 580.19,-418.58 786.28,-419 921.16,-428.21"/>
<polygon fill="black" stroke="black" points="920.93,-431.7 931.16,-428.92 921.43,-424.72 920.93,-431.7"/>
<text text-anchor="middle" x="592.16" y="-481.25" font-family="Times,serif" font-size="14.00">subject</text>
</g>
<!-- Rhttps://id.kb.se/term/sao/Massmedia -->
<g id="node32" class="node">
<title>Rhttps://id.kb.se/term/sao/Massmedia</title>
<ellipse fill="none" stroke="blue" cx="1064.74" cy="-389.45" rx="179.27" ry="18"/>
<text text-anchor="middle" x="1064.74" y="-385.75" font-family="Times,serif" font-size="14.00">https://id.kb.se/term/sao/Massmedia</text>
</g>
<!-- Rhttps://libris.kb.se/3lv80jw71tr31dz3#it&#45;&gt;Rhttps://id.kb.se/term/sao/Massmedia -->
<g id="edge27" class="edge">
<title>Rhttps://libris.kb.se/3lv80jw71tr31dz3#it&#45;&gt;Rhttps://id.kb.se/term/sao/Massmedia</title>
<path fill="none" stroke="black" d="M208.62,-614.31C235.01,-568.73 311.39,-449.82 413.16,-404.45 497.56,-366.82 739.72,-371.16 903.57,-379.19"/>
<polygon fill="black" stroke="black" points="903.6,-382.7 913.76,-379.7 903.95,-375.7 903.6,-382.7"/>
<text text-anchor="middle" x="592.16" y="-408.25" font-family="Times,serif" font-size="14.00">subject</text>
</g>
<!-- Rhttps://id.kb.se/language/swe -->
<g id="node33" class="node">
<title>Rhttps://id.kb.se/language/swe</title>
<ellipse fill="none" stroke="blue" cx="1064.74" cy="-335.45" rx="146.47" ry="18"/>
<text text-anchor="middle" x="1064.74" y="-331.75" font-family="Times,serif" font-size="14.00">https://id.kb.se/language/swe</text>
</g>
<!-- Rhttps://libris.kb.se/3lv80jw71tr31dz3#it&#45;&gt;Rhttps://id.kb.se/language/swe -->
<g id="edge29" class="edge">
<title>Rhttps://libris.kb.se/3lv80jw71tr31dz3#it&#45;&gt;Rhttps://id.kb.se/language/swe</title>
<path fill="none" stroke="black" d="M205.83,-614.38C227.77,-562.41 299.09,-412.59 413.16,-354.45 499.7,-310.35 763.36,-316.91 927.25,-325.98"/>
<polygon fill="black" stroke="black" points="927.23,-329.48 937.42,-326.55 927.63,-322.49 927.23,-329.48"/>
<text text-anchor="middle" x="592.16" y="-358.25" font-family="Times,serif" font-size="14.00">language</text>
</g>
<!-- Rhttps://id.kb.se/term/saogf/Deckare -->
<g id="node34" class="node">
<title>Rhttps://id.kb.se/term/saogf/Deckare</title>
<ellipse fill="none" stroke="blue" cx="1064.74" cy="-281.45" rx="174.37" ry="18"/>
<text text-anchor="middle" x="1064.74" y="-277.75" font-family="Times,serif" font-size="14.00">https://id.kb.se/term/saogf/Deckare</text>
</g>
<!-- Rhttps://libris.kb.se/3lv80jw71tr31dz3#it&#45;&gt;Rhttps://id.kb.se/term/saogf/Deckare -->
<g id="edge30" class="edge">
<title>Rhttps://libris.kb.se/3lv80jw71tr31dz3#it&#45;&gt;Rhttps://id.kb.se/term/saogf/Deckare</title>
<path fill="none" stroke="black" d="M203.66,-614.33C221.14,-555.85 284.93,-371.69 413.16,-299.45 495.91,-252.84 750.52,-259.68 915.59,-269.87"/>
<polygon fill="black" stroke="black" points="915.64,-273.38 925.84,-270.52 916.08,-266.4 915.64,-273.38"/>
<text text-anchor="middle" x="592.16" y="-303.25" font-family="Times,serif" font-size="14.00">genreForm</text>
</g>
<!-- Rhttps://id.kb.se/term/saogf/Romaner -->
<g id="node35" class="node">
<title>Rhttps://id.kb.se/term/saogf/Romaner</title>
<ellipse fill="none" stroke="blue" cx="1064.74" cy="-227.45" rx="178.17" ry="18"/>
<text text-anchor="middle" x="1064.74" y="-223.75" font-family="Times,serif" font-size="14.00">https://id.kb.se/term/saogf/Romaner</text>
</g>
<!-- Rhttps://libris.kb.se/3lv80jw71tr31dz3#it&#45;&gt;Rhttps://id.kb.se/term/saogf/Romaner -->
<g id="edge31" class="edge">
<title>Rhttps://libris.kb.se/3lv80jw71tr31dz3#it&#45;&gt;Rhttps://id.kb.se/term/saogf/Romaner</title>
<path fill="none" stroke="black" d="M202.02,-614.11C215.3,-549.18 269.8,-329.45 413.16,-242.45 495.47,-192.5 756.54,-202.41 921.86,-214.62"/>
<polygon fill="black" stroke="black" points="921.88,-218.13 932.12,-215.39 922.41,-211.15 921.88,-218.13"/>
<text text-anchor="middle" x="592.16" y="-246.25" font-family="Times,serif" font-size="14.00">genreForm</text>
</g>
<!-- Rhttps://id.kb.se/marc/Novel -->
<g id="node36" class="node">
<title>Rhttps://id.kb.se/marc/Novel</title>
<ellipse fill="none" stroke="blue" cx="1064.74" cy="-173.45" rx="135.68" ry="18"/>
<text text-anchor="middle" x="1064.74" y="-169.75" font-family="Times,serif" font-size="14.00">https://id.kb.se/marc/Novel</text>
</g>
<!-- Rhttps://libris.kb.se/3lv80jw71tr31dz3#it&#45;&gt;Rhttps://id.kb.se/marc/Novel -->
<g id="edge32" class="edge">
<title>Rhttps://libris.kb.se/3lv80jw71tr31dz3#it&#45;&gt;Rhttps://id.kb.se/marc/Novel</title>
<path fill="none" stroke="black" d="M200.73,-614.01C210.07,-543.19 254.17,-287.55 413.16,-185.45 498.59,-130.59 784.76,-146.85 947.67,-161.41"/>
<polygon fill="black" stroke="black" points="947.47,-164.9 957.74,-162.32 948.1,-157.93 947.47,-164.9"/>
<text text-anchor="middle" x="592.16" y="-189.25" font-family="Times,serif" font-size="14.00">genreForm</text>
</g>
<!-- Rhttps://id.kb.se/term/rda/Text -->
<g id="node37" class="node">
<title>Rhttps://id.kb.se/term/rda/Text</title>
<ellipse fill="none" stroke="blue" cx="1064.74" cy="-119.45" rx="146.77" ry="18"/>
<text text-anchor="middle" x="1064.74" y="-115.75" font-family="Times,serif" font-size="14.00">https://id.kb.se/term/rda/Text</text>
</g>
<!-- Rhttps://libris.kb.se/3lv80jw71tr31dz3#it&#45;&gt;Rhttps://id.kb.se/term/rda/Text -->
<g id="edge33" class="edge">
<title>Rhttps://libris.kb.se/3lv80jw71tr31dz3#it&#45;&gt;Rhttps://id.kb.se/term/rda/Text</title>
<path fill="none" stroke="black" d="M199.66,-614.37C205.23,-538.71 237.86,-246.1 413.16,-128.45 596.04,-5.73 877.72,-64.72 1001.63,-99.82"/>
<polygon fill="black" stroke="black" points="1000.76,-103.21 1011.34,-102.61 1002.7,-96.48 1000.76,-103.21"/>
<text text-anchor="middle" x="592.16" y="-132.25" font-family="Times,serif" font-size="14.00">contentType</text>
</g>
</g>
</svg>

